<svg width="57" height="68" viewBox="0 0 57 68" fill="none" xmlns="http://www.w3.org/2000/svg">
<path fill-rule="evenodd" clip-rule="evenodd" d="M18.3254 3.92295C12.8954 5.75498 6.93119 7.80539 5.0716 8.47952L1.69053 9.7052L1.65523 15.1864L1.6198 20.6674H0.809968H0V29.1402V37.613H0.811456C1.49362 37.613 1.62305 37.6511 1.62413 37.8521C1.62629 38.2777 2.29953 40.7874 2.78803 42.191C3.46519 44.1369 5.34411 47.9555 6.45256 49.6388C9.84999 54.7982 14.7904 59.5107 20.6467 63.1781C22.5644 64.3791 27.2272 66.9985 27.9233 67.266C28.4311 67.461 28.7953 67.3109 31.641 65.7342C39.646 61.2987 45.8863 55.9971 49.782 50.3221C52.0373 47.0366 53.984 42.5497 54.8391 38.6654L55.0709 37.613H55.8687H56.6667V29.147V20.6811L55.889 20.6401L55.1114 20.5991L55.0761 15.2001L55.0406 9.80086L54.0618 9.41289C52.5936 8.83087 49.4845 7.72681 43.5481 5.67941C40.61 4.6661 37.0802 3.44766 35.7041 2.97195C32.4849 1.85902 29.1217 0.768354 28.6038 0.669414C28.2986 0.611198 25.7521 1.4172 18.3254 3.92295ZM33.1344 3.36703C35.7007 4.22251 39.5044 5.51856 41.5871 6.24722C43.6698 6.97588 46.4998 7.95858 47.8759 8.43114C49.252 8.9037 51.1539 9.58098 52.1022 9.93629L53.8266 10.5823V15.6249V20.6674H52.2037H50.5807L50.5546 20.155C50.5402 19.8732 50.5223 18.7201 50.5149 17.5927C50.5074 16.4652 50.4888 14.9233 50.4734 14.1662L50.4455 12.7897L49.1269 12.3629C46.8435 11.624 39.107 8.97846 36.9212 8.18926C35.7683 7.77287 33.3395 6.94158 31.5237 6.34193L28.2226 5.25154L24.8968 6.41312C23.0678 7.052 20.8713 7.82083 20.0159 8.12161C14.4263 10.0869 9.54962 11.76 7.98648 12.2485L6.16801 12.817L6.20628 16.7422L6.24442 20.6674H4.47464H2.70485V15.6111C2.70485 12.8301 2.72473 10.5548 2.74908 10.5548C2.77342 10.5548 4.61448 9.90404 6.84017 9.10855C9.06599 8.31321 14.1734 6.54964 18.1901 5.18963C22.2068 3.82962 26.0714 2.51716 26.778 2.27309C27.4847 2.02888 28.1541 1.82526 28.2657 1.82048C28.3773 1.8157 30.5682 2.51169 33.1344 3.36703ZM34.1025 8.69872C37.252 9.78228 41.0461 11.0964 42.5338 11.6188C44.0215 12.1413 46.106 12.866 47.1659 13.2292L49.0931 13.8897V17.2103C49.0931 19.0366 49.0931 20.577 49.0931 20.6333C49.0931 20.6896 48.9865 20.7358 48.8564 20.7358C48.6397 20.7358 48.614 20.4667 48.5521 17.5436L48.4845 14.3514L46.5911 13.6823C45.5497 13.3143 44.5911 12.9786 44.461 12.9363C44.2394 12.8644 44.2243 13.1073 44.2243 16.7636C44.2243 20.5763 44.218 20.6674 43.9539 20.6674C43.6896 20.6674 43.6834 20.5763 43.6834 16.6657V12.6641L42.0943 12.1227C41.2203 11.8249 40.4208 11.5595 40.3176 11.5327C40.1594 11.4917 40.1399 12.2048 40.1937 16.0758C40.2547 20.4619 40.2465 20.6674 40.0095 20.6674C39.7736 20.6674 39.7613 20.4355 39.7605 15.9869L39.7597 11.3064L38.239 10.7762C37.4027 10.4844 36.6424 10.2166 36.5493 10.1808C36.4158 10.1292 36.3803 11.2272 36.3803 15.3915C36.3803 19.9902 36.3542 20.6674 36.1774 20.6674C36.001 20.6674 35.9718 19.9939 35.954 15.5086C35.9426 12.6713 35.9271 10.2629 35.9195 10.1567C35.9108 10.0348 35.2693 9.74838 34.182 9.38105L32.4582 8.79848V14.733C32.4582 20.566 32.4536 20.6674 32.1891 20.6674C31.9251 20.6674 31.9194 20.5539 31.8848 14.6391L31.8496 8.61058L30.1929 8.02773L28.5362 7.44475V14.0561C28.5362 19.8418 28.5109 20.6674 28.3333 20.6674C28.1558 20.6674 28.1305 19.8389 28.1305 14.0304V7.39323L27.8378 7.48711C27.6769 7.53877 26.9008 7.81304 26.1135 8.09661L24.6818 8.61222V14.6399C24.6818 20.2893 24.6669 20.6674 24.4451 20.6674C24.2233 20.6674 24.2084 20.2926 24.2084 14.7082C24.2084 9.99792 24.173 8.7624 24.0394 8.81283C23.9465 8.84795 23.1857 9.11019 22.3488 9.39553L20.8274 9.91442V15.2909C20.8274 20.5763 20.8228 20.6674 20.5569 20.6674C20.2911 20.6674 20.2864 20.5763 20.2864 15.3915C20.2864 11.2295 20.2507 10.1284 20.1173 10.1764C20.0244 10.2099 19.2637 10.472 18.4268 10.7588L16.9053 11.2805V15.9739C16.9053 20.5763 16.9001 20.6674 16.6348 20.6674C16.3698 20.6674 16.3644 20.5763 16.3644 16.0894C16.3644 13.5715 16.3186 11.5162 16.2629 11.5221C16.2072 11.5279 15.4312 11.7892 14.5386 12.1029L12.9157 12.673L12.8798 16.6702C12.8491 20.0979 12.8153 20.6674 12.6432 20.6674C12.4702 20.6674 12.4423 20.1242 12.4423 16.7581C12.4423 13.6869 12.4061 12.8627 12.2733 12.9141C12.1804 12.95 11.4348 13.1991 10.6165 13.4678C9.79833 13.7363 8.93102 14.0271 8.68934 14.1138L8.2498 14.2713V17.4694V20.6674H7.84651H7.44321L7.45255 17.32C7.45782 15.4775 7.51719 13.9382 7.58468 13.8959C7.65203 13.8538 9.8224 13.0903 12.4077 12.1993C18.2789 10.1757 27.1394 7.07523 27.5895 6.88705C27.7755 6.80929 28.0285 6.74179 28.1518 6.737C28.2752 6.73236 30.953 7.61503 34.1025 8.69872ZM55.9905 29.0719V36.9297L40.2685 36.931C31.6215 36.9317 21.321 36.9709 17.3787 37.018C13.4364 37.065 8.04356 37.0575 5.39456 37.0011L0.578433 36.8987L0.579244 29.0564L0.580191 21.2141H28.2853H55.9905V29.0719ZM1.35243 29.1402V36.2464H28.3333H55.3142V29.1402V22.034H28.3333H1.35243V29.1402ZM17.4459 28.6411C18.5223 31.5521 19.0986 32.9334 19.3075 33.1044C19.474 33.2406 19.6102 33.4806 19.6102 33.6376C19.6102 33.9141 19.5478 33.9232 17.665 33.9232C15.8527 33.9232 15.7151 33.905 15.651 33.6578C15.5629 33.3173 15.6473 33.2399 16.1067 33.2399C16.3122 33.2399 16.578 33.1413 16.6975 33.0206C16.916 32.7996 16.907 32.6881 16.5959 31.7709L16.4452 31.3267H14.99H13.5347L13.3267 32.0349C13.2121 32.4242 13.1185 32.8174 13.1185 32.9085C13.1185 33.0952 13.4186 33.2399 13.8058 33.2399C13.9923 33.2399 14.0652 33.3359 14.0652 33.5816V33.9232H12.6452H11.2251V33.5816C11.2251 33.389 11.3033 33.2399 11.4045 33.2399C11.8244 33.2399 12.2226 32.4007 13.661 28.4837C15.6679 23.019 15.3621 23.0063 17.4459 28.6411ZM11.2251 24.7197C11.2251 24.9083 8.80092 29.3809 7.29215 31.9758L6.87506 32.6933H8.29659C9.90422 32.6933 9.9801 32.6556 10.3523 31.6708C10.5138 31.2439 10.6635 31.0534 10.8378 31.0534C11.0677 31.0534 11.0899 31.1794 11.0899 32.4883V33.9232H7.70883H4.32776V33.5921C4.32776 33.4101 4.73052 32.5952 5.22267 31.7814C5.71495 30.9676 6.71913 29.3103 7.45417 28.0985C8.18935 26.8866 8.79077 25.8565 8.79077 25.8095C8.79077 25.6646 6.22008 25.7148 5.94229 25.8649C5.79853 25.9427 5.55793 26.2502 5.40741 26.5482C5.25688 26.8464 5.0436 27.0903 4.93365 27.0903C4.77095 27.0903 4.73349 26.8471 4.73349 25.7921V24.4939H7.97932C10.9081 24.4939 11.2251 24.5159 11.2251 24.7197ZM22.7486 25.348C23.0901 25.8178 24.0163 27.0585 24.8066 28.1052L26.2438 30.0084L26.2066 27.6952L26.1695 25.3821L25.7299 25.2513C25.3994 25.1531 25.2904 25.0428 25.2904 24.8072C25.2904 24.5004 25.32 24.4939 26.7104 24.4939H28.1305V24.8355C28.1305 25.0848 28.0581 25.1771 27.8631 25.1771C27.7161 25.1771 27.5004 25.3242 27.3839 25.5037C27.2014 25.7854 27.1775 26.3883 27.2118 29.8769L27.2514 33.9234L26.8457 33.9167C26.4737 33.9106 26.2484 33.6424 24.1408 30.6965L21.8417 27.483L21.8049 30.1731C21.7665 32.989 21.8018 33.1858 22.3587 33.2659C22.549 33.2932 22.6531 33.4049 22.6531 33.5816C22.6531 33.8345 22.5501 33.8578 21.2669 33.8938L19.8807 33.9328V33.5864C19.8807 33.3439 19.9537 33.2399 20.1241 33.2399C20.666 33.2399 20.6921 33.0527 20.6921 29.1693V25.4267L20.2864 25.272C19.999 25.1624 19.8807 25.0264 19.8807 24.8056C19.8807 24.506 19.9248 24.4939 21.0041 24.4939H22.1276L22.7486 25.348ZM35.4336 24.6756L36.0422 24.8355V26.0654C36.0422 27.1596 36.0153 27.2953 35.7982 27.2953C35.6456 27.2953 35.4178 27.0436 35.1896 26.6232C34.7227 25.7626 34.2633 25.4272 33.4488 25.3522C32.448 25.2601 31.6941 25.7231 31.1734 26.7499C30.7883 27.5096 30.7678 27.6338 30.7699 29.1994C30.7718 30.7268 30.7991 30.9008 31.1398 31.5574C31.3421 31.9473 31.7317 32.4391 32.0057 32.6502C32.4252 32.9736 32.6335 33.0343 33.3262 33.0345L34.1488 33.0349V31.4684V29.9021L33.7092 29.7747C33.3734 29.6774 33.2697 29.5714 33.2697 29.3254V29.0035H35.1631C36.9824 29.0035 37.0565 29.0145 37.0565 29.284C37.0565 29.4721 36.9242 29.611 36.6547 29.706C36.3479 29.8139 36.2326 29.9567 36.1673 30.3086C36.089 30.7302 36.1523 32.6606 36.2654 33.3032C36.3063 33.5355 36.1861 33.5959 35.366 33.7546C34.8146 33.8613 33.7981 33.9203 32.9316 33.896C31.5946 33.8583 31.3801 33.8161 30.8129 33.4796C29.3201 32.5939 28.5754 30.9934 28.7069 28.9531C28.8429 26.8418 29.7449 25.378 31.2768 24.7832C32.0998 24.4635 34.3992 24.4041 35.4336 24.6756ZM43.6834 25.6554C43.6834 26.8034 43.6795 26.817 43.3453 26.817C43.1406 26.817 43.0072 26.7391 43.0072 26.6197C43.0072 26.5111 42.8661 26.2566 42.6938 26.0541C42.4167 25.7287 42.2595 25.6781 41.3414 25.6185L40.3023 25.5512V27.0914V28.6318L41.0555 28.5533C41.8819 28.467 42.1957 28.2855 42.1957 27.8936C42.1957 27.7281 42.2917 27.637 42.4662 27.637C42.7203 27.637 42.7367 27.7281 42.7367 29.1402C42.7367 30.5236 42.7163 30.6434 42.4808 30.6434C42.3147 30.6434 42.1923 30.512 42.1319 30.2684C41.9818 29.6639 41.8073 29.5502 41.0296 29.5502H40.3023V31.1901V32.83L41.2828 32.8223C42.6352 32.8116 43.1507 32.611 43.4578 31.9758C43.6159 31.6488 43.7995 31.4634 43.9649 31.4634C44.2014 31.4634 44.2243 31.5722 44.2243 32.6933V33.9232H40.8433C37.5386 33.9232 37.4622 33.9169 37.4622 33.6465C37.4622 33.4766 37.5937 33.3193 37.8028 33.239C37.9901 33.1671 38.2031 32.9494 38.2761 32.7552C38.4257 32.3575 38.4537 28.308 38.3188 26.5578C38.234 25.4561 38.2151 25.4044 37.8463 25.2638C37.5791 25.1617 37.4622 25.0224 37.4622 24.8056V24.4939H40.5728H43.6834V25.6554ZM49.1245 24.6237C50.7161 24.8872 51.3968 25.5003 51.5005 26.764C51.5331 27.1621 51.523 27.6362 51.4779 27.8175C51.3767 28.2254 50.6806 28.9287 50.1639 29.1448L49.7778 29.3064L50.0966 29.7358C50.2719 29.9719 50.581 30.5034 50.7837 30.9167C51.4471 32.2698 52.064 33.2069 52.3392 33.2796C52.5027 33.3227 52.6094 33.466 52.6094 33.6422C52.6094 33.9213 52.557 33.9318 51.3603 33.8942L50.111 33.8549L49.1493 31.9808C48.0999 29.9358 47.9374 29.6868 47.6523 29.6868C47.4968 29.6868 47.4688 29.9942 47.4998 31.3609C47.5358 32.948 47.5536 33.0419 47.8421 33.1698C48.0287 33.2525 48.1464 33.4244 48.1464 33.614C48.1464 33.9186 48.1214 33.9232 46.4657 33.9232C44.9737 33.9232 44.7798 33.8964 44.7369 33.6841C44.7073 33.5373 44.8327 33.3542 45.0615 33.21C45.2665 33.0809 45.4671 32.8349 45.5071 32.6634C45.5473 32.4919 45.5336 30.7842 45.477 28.8685L45.3739 25.3853L45.002 25.2054C44.7847 25.1003 44.6301 24.915 44.6301 24.7597C44.6301 24.5092 44.7373 24.4939 46.4897 24.4947C47.5125 24.4951 48.6982 24.5532 49.1245 24.6237ZM47.4702 27.0903V28.7302H48.0923C48.6195 28.7302 48.7846 28.6593 49.1742 28.2656C49.5494 27.8865 49.634 27.6966 49.634 27.2338C49.634 26.1456 48.9504 25.4505 47.8802 25.4505H47.4702V27.0903ZM14.4768 28.6793C14.2262 29.4213 13.9941 30.1054 13.9611 30.1993C13.9165 30.3263 14.1649 30.3701 14.9298 30.3701C15.4957 30.3701 15.9586 30.3138 15.9586 30.2451C15.9586 30.1426 15.4604 28.7163 15.0298 27.586C14.9584 27.3984 14.8107 27.6901 14.4768 28.6793ZM6.48881 39.3212C7.62552 43.0928 9.14849 46.1181 11.5455 49.3655C12.8038 51.0702 16.2932 54.5727 18.3288 56.1745C20.8078 58.1251 24.1403 60.3092 27.1359 61.9466L28.2376 62.5488L28.7588 62.3009C29.9169 61.7502 32.782 60.0423 34.7845 58.709C37.5774 56.8493 39.25 55.4802 41.7716 52.9895C45.9895 48.8231 48.5735 44.5501 50.1196 39.1845L50.5528 37.6813L52.1897 37.6429C53.0899 37.6218 53.8266 37.653 53.8266 37.7122C53.8266 37.7714 53.557 38.7725 53.2277 39.9371C51.5437 45.8911 49.0303 50.1336 44.4379 54.7745C41.5337 57.7095 39.1794 59.611 35.366 62.1018C32.9198 63.6996 28.7424 66.0377 28.3339 66.0377C27.7415 66.0377 21.4067 62.3336 18.8331 60.4823C15.8272 58.3201 14.1778 56.8714 11.2007 53.7783C9.32457 51.8292 6.9228 48.3473 5.51763 45.5391C4.41459 43.3349 3.19227 39.8876 2.9115 38.1893L2.81481 37.6041L4.40472 37.6426L5.9945 37.6813L6.48881 39.3212ZM8.16068 38.1596C8.86908 40.9186 10.2663 44.1087 11.8716 46.6324L12.4366 47.5206L12.4395 42.5668C12.4423 37.7051 12.4473 37.613 12.7128 37.613C12.9787 37.613 12.9833 37.7041 12.9833 42.9433V48.2736L13.8843 49.332C14.3798 49.9142 15.1405 50.7515 15.5748 51.1929L16.3644 51.9953V44.8041C16.3644 37.7041 16.3677 37.613 16.6348 37.613C16.9021 37.613 16.9053 37.7041 16.9053 45.1018V52.5908L18.0887 53.6139C18.7396 54.1768 19.5004 54.8113 19.7792 55.0241L20.2864 55.4108V46.512C20.2864 37.7041 20.2891 37.613 20.5569 37.613C20.8247 37.613 20.8274 37.7043 20.828 46.7348L20.8287 55.8567L22.4474 56.9158C23.3376 57.4983 24.1004 57.9749 24.1424 57.9749C24.1844 57.9749 24.2011 53.4088 24.1798 47.8281C24.1424 38.1067 24.1511 37.6813 24.386 37.6813C24.6207 37.6813 24.6308 38.1119 24.6219 47.6573C24.6167 53.1441 24.6608 57.8096 24.7197 58.0252C24.8063 58.3417 25.1331 58.5979 26.4188 59.3576C27.2945 59.8749 28.0378 60.2981 28.0707 60.2981C28.1036 60.2981 28.1305 55.1939 28.1305 48.9555C28.1305 38.9838 28.1549 37.613 28.3325 37.613C28.51 37.613 28.5389 38.9987 28.5692 48.9501L28.6038 60.2872L30.2267 59.3472L31.8496 58.4072L31.8843 48.0942C31.9185 37.9327 31.9229 37.78 32.1877 37.71C32.4539 37.6397 32.4569 37.7364 32.4912 47.8124L32.5259 57.9856L34.2164 56.8528L35.9069 55.7201L35.9417 46.6665C35.9721 38.7649 36.002 37.613 36.1774 37.613C36.3527 37.613 36.3827 38.7396 36.4131 46.4476L36.4479 55.2821L37.2683 54.6129C37.7194 54.2447 38.4649 53.6069 38.925 53.1957L39.7613 52.4478V45.0203C39.7613 38.0843 39.7766 37.5959 39.9927 37.638C40.2083 37.6799 40.2213 38.1738 40.183 44.8225C40.1603 48.7492 40.1714 51.962 40.2075 51.962C40.2941 51.962 42.9441 48.9583 43.3599 48.3889L43.6834 47.9458V42.7693C43.6834 37.9129 43.698 37.5957 43.92 37.6392C44.1363 37.6816 44.1567 37.9277 44.1567 40.485C44.1567 42.0245 44.1734 44.1759 44.1936 45.2658L44.2304 47.2473L44.6988 46.4957C45.715 44.8648 47.2354 41.5846 47.866 39.6624C48.412 37.9985 48.5623 37.6743 48.8046 37.6376C49.1708 37.5822 49.1672 37.6671 48.7402 39.0964C48.0793 41.3086 46.9794 43.8034 45.7201 45.9463C43.4494 49.8105 39.6594 53.7421 35.1362 56.9257C32.7518 58.6038 28.7568 60.9814 28.3213 60.9814C27.6546 60.9814 21.0832 56.7949 19.0016 55.044C15.6499 52.2248 12.8378 49.1228 11.128 46.359C9.56896 43.8388 9.04787 42.7074 7.91846 39.3902C7.35084 37.7231 7.33597 37.5791 7.73818 37.6376C7.952 37.6687 8.07304 37.8184 8.16068 38.1596Z" fill="#027DFF
"/>
</svg>
