<svg width="229" height="102" viewBox="0 0 229 102" fill="none" xmlns="http://www.w3.org/2000/svg">
<mask id="path-1-inside-1_239_589" fill="white">
<path d="M0 20C0 8.9543 8.9543 0 20 0H209C220.046 0 229 8.95431 229 20V82C229 93.0457 220.046 102 209 102H20C8.9543 102 0 93.0457 0 82V20Z"/>
</mask>
<path d="M0 20C0 8.9543 8.9543 0 20 0H209C220.046 0 229 8.95431 229 20V82C229 93.0457 220.046 102 209 102H20C8.9543 102 0 93.0457 0 82V20Z" fill="url(#paint0_linear_239_589)"/>
<path d="M0 20C0 7.84974 9.84974 -2 22 -2H207C219.15 -2 229 7.84974 229 20C229 10.0589 220.046 2 209 2H20C8.9543 2 0 10.0589 0 20ZM229 102H0H229ZM0 102V0V102ZM229 0V102V0Z" fill="url(#paint1_linear_239_589)" mask="url(#path-1-inside-1_239_589)"/>
<path d="M83.7589 50.0881C88.4232 50.0881 92.2051 53.8693 92.2052 58.5334C92.2052 62.4451 89.5451 65.7345 85.9357 66.6946C85.8182 65.7032 85.9048 64.1578 86.5255 62.8557C87.1453 61.5559 88.2915 60.4928 90.3869 60.4417L91.1476 60.4231L90.8283 59.7317C90.5178 59.0592 89.8779 58.1359 88.9386 57.5413C88.2093 57.0796 87.3066 56.8236 86.2785 57.0256C86.443 56.4155 86.535 55.6998 86.4474 54.968C86.2994 53.7315 85.6428 52.4714 84.0597 51.6506C84.0343 51.6375 84.0084 51.6245 83.9826 51.6116L83.8293 51.9182L83.6759 51.6116C83.6502 51.6245 83.6241 51.6375 83.5988 51.6506C82.0159 52.4714 81.3591 53.7316 81.2111 54.968C81.1235 55.6998 81.2155 56.4156 81.38 57.0256C80.352 56.8237 79.4491 57.0796 78.7199 57.5413C77.7807 58.1359 77.1406 59.0592 76.8302 59.7317L76.5119 60.4231L77.2726 60.4417C79.3677 60.4929 80.513 61.556 81.133 62.8557C81.7612 64.1729 81.8435 65.739 81.7199 66.7288C78.0412 65.8162 75.3136 62.4943 75.3136 58.5334C75.3138 53.8694 79.0949 50.0884 83.7589 50.0881Z" fill="white"/>
<path d="M138.09 35.4487C146.175 35.4488 152.729 42.0027 152.729 50.0874C152.729 58.1722 146.175 64.726 138.09 64.7261C130.006 64.7261 123.452 58.1722 123.452 50.0874C123.452 42.0027 130.006 35.4487 138.09 35.4487ZM137.948 41.3608C134.761 41.361 132.177 45.2048 132.177 49.9468C132.177 54.6887 134.761 58.5325 137.948 58.5327C141.135 58.5327 143.719 54.6888 143.719 49.9468C143.719 45.2047 141.135 41.3608 137.948 41.3608Z" fill="white"/>
<path d="M104.953 35.0188C107.977 34.8645 111.112 35.6546 113.099 37.4153V35.3704H121.708L121.7 35.8772L121.278 65.0149V65.0256L121.277 65.0374C120.982 70.0444 116.869 75.3397 110.538 75.7815L110.52 75.7825H110.503C104.561 75.7792 101.315 75.3968 95.8747 73.9358L95.3854 73.804L95.5231 73.3167L97.3532 66.842L97.5221 66.2424L98.071 66.5374C100.472 67.83 104.029 69.0015 106.977 68.4573C108.43 68.189 109.725 67.5069 110.684 66.218C111.479 65.1508 112.066 63.6338 112.297 61.5217C108.413 65.2185 100.988 65.1842 96.1999 59.9973L96.195 59.9924L96.1901 59.9866C94.1741 57.6714 93.2872 53.8657 93.3229 50.0647C93.3587 46.2633 94.3176 42.3287 96.1432 39.6868C97.8144 36.6769 101.422 35.199 104.953 35.0188ZM107.547 41.6418C104.437 41.6421 101.917 45.2344 101.917 49.6653C101.917 54.0962 104.437 57.6884 107.547 57.6887C110.656 57.6887 113.177 54.0964 113.177 49.6653C113.177 45.2342 110.656 41.6418 107.547 41.6418Z" fill="white"/>
<path d="M64.3232 35.5112C69.5252 35.2259 73.7864 38.4133 74.9658 42.2886C75.5598 44.2408 75.3673 46.363 74.1161 48.2622C72.87 50.1536 70.6075 51.7741 67.1542 52.8169L67.1464 52.8198L67.1386 52.8218C66.057 53.1102 64.2474 53.4746 62.3056 53.6392C60.6009 53.7836 58.7482 53.7775 57.1874 53.4048C57.1586 54.8136 57.6746 56.4135 59.2372 57.3335C61.0507 58.4009 64.4504 58.6691 70.4921 56.3755L71.1699 56.1187V63.2417L70.8466 63.3628C67.9364 64.4601 63.3672 65.4768 59.1132 64.9331C56.981 64.6605 54.9049 63.9925 53.1581 62.7251C51.4048 61.4526 50.0091 59.5932 49.2187 56.9878L49.206 56.9487L49.2011 56.9077C48.7473 53.4446 48.9428 48.217 51.0361 43.7886C52.0861 41.5673 53.6192 39.5362 55.7968 38.0396C57.9767 36.5414 60.7752 35.5969 64.3232 35.5103V35.5112ZM66.5449 42.0718C65.4753 41.2822 64.4029 40.9823 63.3681 41.062C62.2774 41.1461 61.2871 41.6476 60.4345 42.3228C58.7394 43.6653 57.4661 45.7882 56.8388 47.2114L56.5703 47.8208L57.2314 47.9087C60.0174 48.2782 62.1419 48.2894 63.7324 48.0542C65.317 47.8198 66.4173 47.3333 67.0986 46.6646C67.797 45.9787 68.0128 45.1417 67.8945 44.3394C67.7788 43.5565 67.3514 42.8246 66.7997 42.2729L66.7802 42.2534L66.7587 42.2368L66.5449 42.0718Z" fill="white"/>
<path d="M160.613 36.0117L165.961 54.2715L171.311 36.0117H180.038L170.747 63.8818H161.176L151.886 36.0117H160.613Z" fill="white"/>
<defs>
<linearGradient id="paint0_linear_239_589" x1="114.5" y1="0" x2="114.5" y2="102" gradientUnits="userSpaceOnUse">
<stop stop-color="#111121"/>
<stop offset="1" stop-color="#28365A"/>
</linearGradient>
<linearGradient id="paint1_linear_239_589" x1="0" y1="51" x2="229" y2="51" gradientUnits="userSpaceOnUse">
<stop stop-color="#0A4C97"/>
<stop offset="0.230779" stop-color="#AAABE5"/>
<stop offset="0.471177" stop-color="#ABD2FE"/>
<stop offset="0.764462" stop-color="#AAABE5"/>
<stop offset="1" stop-color="#0A4C97"/>
</linearGradient>
</defs>
</svg>
