<svg width="50" height="50" viewBox="0 0 50 50" fill="none" xmlns="http://www.w3.org/2000/svg">
<rect width="50" height="50" rx="10" fill="#081729"/>
<path d="M19.6 15.9375C19.6 14.4954 20.1689 13.1123 21.1816 12.0926C22.1943 11.0729 23.5678 10.5 25 10.5C26.4322 10.5 27.8057 11.0729 28.8184 12.0926C29.8311 13.1123 30.4 14.4954 30.4 15.9375V25C30.4 26.4421 29.8311 27.8252 28.8184 28.8449C27.8057 29.8646 26.4322 30.4375 25 30.4375C23.5678 30.4375 22.1943 29.8646 21.1816 28.8449C20.1689 27.8252 19.6 26.4421 19.6 25V15.9375Z" fill="white"/>
<path d="M16.9 22.2812C17.1387 22.2812 17.3676 22.3767 17.5364 22.5467C17.7052 22.7166 17.8 22.9471 17.8 23.1875V25C17.8 26.9228 18.5586 28.7669 19.9088 30.1265C21.2591 31.4862 23.0904 32.25 25 32.25C26.9096 32.25 28.7409 31.4862 30.0912 30.1265C31.4414 28.7669 32.2 26.9228 32.2 25V23.1875C32.2 22.9471 32.2948 22.7166 32.4636 22.5467C32.6324 22.3767 32.8613 22.2812 33.1 22.2812C33.3387 22.2812 33.5676 22.3767 33.7364 22.5467C33.9052 22.7166 34 22.9471 34 23.1875V25C34 27.2466 33.1713 29.4132 31.6746 31.0794C30.1779 32.7455 28.12 33.7925 25.9 34.0172V37.6875H31.3C31.5387 37.6875 31.7676 37.783 31.9364 37.9529C32.1052 38.1229 32.2 38.3534 32.2 38.5938C32.2 38.8341 32.1052 39.0646 31.9364 39.2346C31.7676 39.4045 31.5387 39.5 31.3 39.5H18.7C18.4613 39.5 18.2324 39.4045 18.0636 39.2346C17.8948 39.0646 17.8 38.8341 17.8 38.5938C17.8 38.3534 17.8948 38.1229 18.0636 37.9529C18.2324 37.783 18.4613 37.6875 18.7 37.6875H24.1V34.0172C21.88 33.7925 19.8221 32.7455 18.3254 31.0794C16.8287 29.4132 16 27.2466 16 25V23.1875C16 22.9471 16.0948 22.7166 16.2636 22.5467C16.4324 22.3767 16.6613 22.2812 16.9 22.2812Z" fill="white"/>
</svg>
