<svg viewBox="0 0 19 19" xmlns="http://www.w3.org/2000/svg" xmlns:xlink="http://www.w3.org/1999/xlink" width="19.000000" height="19.000000" fill="none" customFrame="#000000">
	<path id="Vector" d="M7.125 3.5625C7.125 4.50733 6.74967 5.41347 6.08157 6.08157C5.41347 6.74967 4.50733 7.125 3.5625 7.125C2.61767 7.125 1.71153 6.74967 1.04343 6.08157C0.375334 5.41347 0 4.50733 0 3.5625C0 2.61767 0.375334 1.71153 1.04343 1.04343C1.71153 0.375334 2.61767 0 3.5625 0C4.50733 0 5.41347 0.375334 6.08157 1.04343C6.74967 1.71153 7.125 2.61767 7.125 3.5625ZM10.6875 7.125L11.2812 7.125C11.8573 7.12493 12.4137 7.33423 12.8469 7.71391C13.2802 8.0936 13.5606 8.61779 13.6361 9.18888L17.3292 7.54775C17.51 7.4672 17.708 7.43311 17.9053 7.44858C18.1026 7.46404 18.2929 7.52857 18.4589 7.63629C18.6249 7.74402 18.7614 7.89153 18.8559 8.06541C18.9504 8.23929 18.9999 8.43404 19 8.63194L19 17.4931C18.9998 17.6908 18.9503 17.8854 18.8558 18.0591C18.7614 18.2329 18.6251 18.3803 18.4592 18.488C18.2934 18.5957 18.1033 18.6602 17.9061 18.6758C17.709 18.6914 17.5111 18.6575 17.3304 18.5772L13.6361 16.9361C13.5606 17.5072 13.2802 18.0314 12.8469 18.4111C12.4137 18.7908 11.8573 19.0001 11.2812 19L2.375 19C1.74511 19 1.14102 18.7498 0.695621 18.3044C0.250223 17.859 0 17.2549 0 16.625L0 9.5C0 8.87011 0.250223 8.26602 0.695621 7.82062C1.14102 7.37522 1.74511 7.125 2.375 7.125L10.6875 7.125ZM10.6875 7.125C11.6323 7.125 12.5385 6.74967 13.2066 6.08157C13.8747 5.41347 14.25 4.50733 14.25 3.5625C14.25 2.61767 13.8747 1.71153 13.2066 1.04343C12.5385 0.375334 11.6323 0 10.6875 0C9.74267 0 8.83653 0.375334 8.16843 1.04343C7.50033 1.71153 7.125 2.61767 7.125 3.5625C7.125 4.50733 7.50033 5.41347 8.16843 6.08157C8.83653 6.74967 9.74267 7.125 10.6875 7.125Z" fill="rgb(7.83506,23.2873,40.9471)" fill-rule="evenodd" />
</svg>
