<svg width="14" height="19" viewBox="0 0 14 19" fill="none" xmlns="http://www.w3.org/2000/svg">
<path d="M8.612 0.0361328H2.54883C1.94121 0.0361328 1.35848 0.277507 0.928835 0.707156C0.499187 1.1368 0.257813 1.71953 0.257812 2.32715V16.0732C0.257813 16.6809 0.499187 17.2636 0.928835 17.6932C1.35848 18.1229 1.94121 18.3643 2.54883 18.3643H11.7129C12.3205 18.3643 12.9032 18.1229 13.3329 17.6932C13.7625 17.2636 14.0039 16.6809 14.0039 16.0732V5.42804C14.0038 5.12426 13.8831 4.83294 13.6683 4.61816L9.42188 0.371767C9.2071 0.156927 8.91578 0.0361977 8.612 0.0361328ZM8.84912 4.04541V1.75439L12.2856 5.19092H9.99463C9.69082 5.19092 9.39946 5.07023 9.18463 4.85541C8.96981 4.64058 8.84912 4.34922 8.84912 4.04541ZM10.4001 9.03295L6.96362 12.4695C6.91041 12.5228 6.84721 12.5651 6.77762 12.594C6.70804 12.6229 6.63344 12.6377 6.55811 12.6377C6.48277 12.6377 6.40817 12.6229 6.33859 12.594C6.269 12.5651 6.2058 12.5228 6.1526 12.4695L4.43433 10.7512C4.38108 10.698 4.33884 10.6347 4.31002 10.5652C4.2812 10.4956 4.26637 10.421 4.26637 10.3457C4.26637 10.2704 4.2812 10.1958 4.31002 10.1262C4.33884 10.0567 4.38108 9.99345 4.43433 9.94019C4.54188 9.83265 4.68775 9.77223 4.83984 9.77223C4.91515 9.77223 4.98973 9.78706 5.0593 9.81588C5.12888 9.8447 5.1921 9.88694 5.24535 9.94019L6.55811 11.2541L9.58912 8.22193C9.69667 8.11438 9.84253 8.05396 9.99463 8.05396C10.1467 8.05396 10.2926 8.11438 10.4001 8.22193C10.5077 8.32948 10.5681 8.47535 10.5681 8.62744C10.5681 8.77954 10.5077 8.9254 10.4001 9.03295Z" fill="white"/>
</svg>
